HIERARCHY
ROOT Hips
{
	OFFSET 0.00000 0.00000 0.00000
	CHANNELS 6 Xposition Yposition Zposition Zrotation Yrotation Xrotation 
	JOINT LHipJoint
	{
		OFFSET 0 0 0
		CHANNELS 3 Zrotation Yrotation Xrotation
		JOINT LeftUpLeg
		{
			OFFSET 1.28366 -1.58472 0.87544
			CHANNELS 3 Zrotation Yrotation Xrotation
			JOINT LeftLeg
			{
				OFFSET 2.18587 -6.00562 0.00000
				CHANNELS 3 Zrotation Yrotation Xrotation
				JOINT LeftFoot
				{
					OFFSET 2.39085 -6.56880 0.00000
					CHANNELS 3 Zrotation Yrotation Xrotation
					JOINT LeftToeBase
					{
						OFFSET 0.12003 -0.32979 2.03101
						CHANNELS 3 Zrotation Yrotation Xrotation
						End Site
						{
							OFFSET 0.00000 -0.00000 1.04074
						}
					}
				}
			}
		}
	}
	JOINT RHipJoint
	{
		OFFSET 0 0 0
		CHANNELS 3 Zrotation Yrotation Xrotation
		JOINT RightUpLeg
		{
			OFFSET -1.21795 -1.58472 0.87544
			CHANNELS 3 Zrotation Yrotation Xrotation
			JOINT RightLeg
			{
				OFFSET -2.22714 -6.11902 0.00000
				CHANNELS 3 Zrotation Yrotation Xrotation
				JOINT RightFoot
				{
					OFFSET -2.40306 -6.60235 0.00000
					CHANNELS 3 Zrotation Yrotation Xrotation
					JOINT RightToeBase
					{
						OFFSET -0.15519 -0.42640 1.91430
						CHANNELS 3 Zrotation Yrotation Xrotation
						End Site
						{
							OFFSET -0.00000 -0.00000 0.99082
						}
					}
				}
			}
		}
	}
	JOINT LowerBack
	{
		OFFSET 0 0 0
		CHANNELS 3 Zrotation Yrotation Xrotation
		JOINT Spine
		{
			OFFSET 0.01180 1.76430 -0.06387
			CHANNELS 3 Zrotation Yrotation Xrotation
			JOINT Spine1
			{
				OFFSET -0.00388 1.74651 0.09536
				CHANNELS 3 Zrotation Yrotation Xrotation
				JOINT Neck
				{
					OFFSET 0 0 0
					CHANNELS 3 Zrotation Yrotation Xrotation
					JOINT Neck1
					{
						OFFSET 0.04111 1.46174 0.14397
						CHANNELS 3 Zrotation Yrotation Xrotation
						JOINT Head
						{
							OFFSET 0.00502 1.44580 -0.31711
							CHANNELS 3 Zrotation Yrotation Xrotation
							End Site
							{
								OFFSET -0.00395 1.49251 -0.12327
							}
						}
					}
				}
				JOINT LeftShoulder
				{
					OFFSET 0 0 0
					CHANNELS 3 Zrotation Yrotation Xrotation
					JOINT LeftArm
					{
						OFFSET 2.70917 1.34870 -0.15417
						CHANNELS 3 Zrotation Yrotation Xrotation
						JOINT LeftForeArm
						{
							OFFSET 4.46610 -0.00000 -0.00000
							CHANNELS 3 Zrotation Yrotation Xrotation
							JOINT LeftHand
							{
								OFFSET 3.41414 -0.00000 0.00000
								CHANNELS 3 Zrotation Yrotation Xrotation
								JOINT LeftFingerBase
								{
									OFFSET 0 0 0
									CHANNELS 3 Zrotation Yrotation Xrotation
									JOINT LeftHandIndex1
									{
										OFFSET 0.32830 -0.00000 0.00000
										CHANNELS 3 Zrotation Yrotation Xrotation
										End Site
										{
											OFFSET 0.26468 -0.00000 0.00000
										}
									}
								}
								JOINT LThumb
								{
									OFFSET 0 0 0
									CHANNELS 3 Zrotation Yrotation Xrotation
									End Site
									{
										OFFSET 0.26872 -0.00000 0.26872
									}
								}
							}
						}
					}
				}
				JOINT RightShoulder
				{
					OFFSET 0 0 0
					CHANNELS 3 Zrotation Yrotation Xrotation
					JOINT RightArm
					{
						OFFSET -3.06316 1.13725 -0.10883
						CHANNELS 3 Zrotation Yrotation Xrotation
						JOINT RightForeArm
						{
							OFFSET -4.40431 -0.00000 0.00000
							CHANNELS 3 Zrotation Yrotation Xrotation
							JOINT RightHand
							{
								OFFSET -3.04688 -0.00000 0.00000
								CHANNELS 3 Zrotation Yrotation Xrotation
								JOINT RightFingerBase
								{
									OFFSET 0 0 0
									CHANNELS 3 Zrotation Yrotation Xrotation
									JOINT RightHandIndex1
									{
										OFFSET -0.50049 -0.00000 0.00000
										CHANNELS 3 Zrotation Yrotation Xrotation
										End Site
										{
											OFFSET -0.40351 -0.00000 0.00000
										}
									}
								}
								JOINT RThumb
								{
									OFFSET 0 0 0
									CHANNELS 3 Zrotation Yrotation Xrotation
									End Site
									{
										OFFSET -0.40967 -0.00000 0.40967
									}
								}
							}
						}
					}
				}
			}
		}
	}
}
MOTION
Frames: 15
Frame Time: .0083333
-27.6113 14.7018 6.7830 -179.2780 3.4105 -175.0540 0.0000 0.0000 0.0000 -5.5571 17.0293 -25.8378 5.4077 13.8287 42.5554 0.4884 3.8942 -15.2030 0.9291 -6.1403 -17.1919 0.0000 0.0000 0.0000 -0.6640 -9.6808 -49.4972 -14.9781 -19.3843 75.1707 0.0342 -7.0298 4.0626 -0.4121 -4.1209 11.4170 -2.6846 1.9119 6.3800 -0.4998 2.7588 -8.5471 0.4209 1.7638 -12.9759 5.3029 8.7064 -13.7535 -0.5688 10.6989 6.1392 -0.1678 5.3474 4.3481 0.0000 0.0000 0.0000 22.9607 -31.6688 -9.1326 104.4303 -59.1984 -72.4634 -0.0000 0.0000 -25.3635 29.4862 -2.1954 -1.2409 -7.1250 0.0000 -0.0000 2.2295 27.4561 -0.9511 0.0000 0.0000 0.0000 -11.6701 27.1062 2.6618 -94.4162 59.9262 -63.8236 0.0000 -0.0000 -13.6878 -40.9672 25.8829 -20.7584 7.1250 -0.0000 -0.0000 -6.5342 2.5553 -6.8631
-27.4738 14.7821 6.7417 -179.2050 3.3882 -174.9270 0.0000 0.0000 0.0000 -5.0818 16.6929 -24.9796 5.0736 13.4662 41.1395 0.3396 4.6807 -13.7351 0.8343 -5.8269 -16.2829 0.0000 0.0000 0.0000 -0.6894 -9.0670 -48.2592 -14.1355 -19.1546 72.6178 0.0090 -8.0517 5.4528 -0.4230 -4.1742 11.5673 -2.7040 1.8621 6.0795 -0.5257 2.7200 -8.6554 0.4176 1.7576 -12.9127 5.4362 8.9521 -13.8682 -0.7694 11.0169 6.1263 -0.2152 5.4932 4.3886 0.0000 -0.0000 0.0000 24.6888 -31.5752 -11.3649 99.5283 -59.6542 -68.2421 -0.0000 0.0000 -28.4752 28.9983 -1.3250 -0.7343 -7.1250 0.0000 -0.0000 1.8835 28.4630 -0.7585 0.0000 -0.0000 0.0000 -13.3128 27.0094 0.4047 -91.2716 59.9939 -61.1013 0.0000 -0.0000 -15.4280 -39.9266 25.4301 -19.7675 7.1250 -0.0000 -0.0000 -6.0398 1.6636 -6.2470
-27.3309 14.8597 6.7000 -179.1160 3.3322 -174.7780 0.0000 0.0000 0.0000 -4.6032 16.3642 -24.2865 4.7886 13.1417 39.9011 0.1933 5.5830 -12.1992 0.7298 -5.4583 -15.2206 0.0000 0.0000 0.0000 -0.5956 -8.4293 -46.9594 -13.2483 -18.8700 69.8950 -0.0617 -8.7159 7.2268 -0.3976 -4.0484 11.2128 -2.7448 1.8058 5.7405 -0.5509 2.6732 -8.7653 0.4299 1.7507 -12.8285 5.5712 9.1888 -13.9960 -0.9333 11.3179 6.1449 -0.2510 5.6328 4.4395 0.0000 -0.0000 0.0000 26.2917 -31.5339 -13.3924 94.5644 -59.9211 -63.9518 -0.0000 0.0000 -31.6344 28.2477 -0.4006 -0.2152 -7.1250 0.0000 -0.0000 1.3199 29.5238 -0.4982 0.0000 -0.0000 0.0000 -14.8104 26.8562 -1.6778 -88.0496 59.9856 -58.3110 0.0000 -0.0000 -17.1922 -38.9295 24.9121 -18.7907 7.1250 -0.0000 -0.0000 -5.5755 0.7296 -5.6729
-27.1827 14.9331 6.6581 -179.0140 3.2361 -174.6090 0.0000 0.0000 0.0000 -4.1297 16.0622 -23.7996 4.5589 12.8691 38.8806 0.0534 6.5770 -10.6170 0.6080 -4.9908 -13.8823 0.0000 0.0000 0.0000 -0.3868 -7.8148 -45.6281 -12.3513 -18.5352 67.0980 -0.1721 -9.0359 9.1237 -0.3600 -3.8543 10.6672 -2.8127 1.7391 5.3673 -0.5822 2.6116 -8.8721 0.4542 1.7395 -12.7198 5.7123 9.4149 -14.1611 -1.0399 11.5953 6.2083 -0.2689 5.7642 4.5071 -0.0000 0.0000 0.0000 27.7969 -31.5285 -15.2674 89.6660 -59.9996 -59.7107 -0.0000 0.0000 -34.8118 27.2996 0.6023 0.3109 -7.1250 0.0000 -0.0000 0.5819 30.6573 -0.2039 -0.0000 0.0000 0.0000 -16.1621 26.6602 -3.6030 -84.8121 59.8981 -55.5086 0.0000 -0.0000 -19.0261 -38.0274 24.3397 -17.8652 7.1250 -0.0000 -0.0000 -5.1684 -0.2200 -5.1697
-27.0295 15.0009 6.6170 -178.9060 3.0984 -174.4250 0.0000 0.0000 0.0000 -3.6751 15.8042 -23.5447 4.3882 12.6598 38.1081 -0.0768 7.6457 -9.0256 0.4733 -4.4120 -12.2388 0.0000 0.0000 0.0000 -0.0735 -7.2184 -44.2672 -11.4934 -18.1682 64.3737 -0.3074 -8.9788 10.9246 -0.3037 -3.5435 9.7957 -2.9134 1.6608 4.9714 -0.6192 2.5328 -8.9774 0.4937 1.7233 -12.5961 5.8774 9.6371 -14.3305 -1.1103 11.8588 6.2975 -0.2789 5.8915 4.5829 0.0000 -0.0000 0.0000 29.2045 -31.5543 -17.0170 84.9582 -59.9037 -55.6351 -0.0000 0.0000 -37.9595 26.2437 1.7231 0.8493 -7.1250 0.0000 -0.0000 -0.2688 31.9007 0.0861 0.0000 -0.0000 0.0000 -17.3835 26.4262 -5.3724 -81.6177 59.7328 -52.7472 0.0000 -0.0000 -20.9843 -37.2496 23.7159 -17.0055 7.1250 -0.0000 -0.0000 -4.8356 -1.1767 -4.7523
-26.8720 15.0625 6.5772 -178.7960 2.9147 -174.2330 0.0000 0.0000 0.0000 -3.2497 15.6036 -23.5438 4.2785 12.5220 37.6046 -0.1958 8.7767 -7.4689 0.3239 -3.6582 -10.1171 0.0000 0.0000 0.0000 0.3461 -6.7226 -42.9512 -10.7234 -17.7971 61.8801 -0.4429 -8.6311 12.4563 -0.2290 -3.0802 8.5022 -3.0496 1.5717 4.5659 -0.6640 2.4370 -9.0789 0.5470 1.7022 -12.4627 6.0608 9.8496 -14.4991 -1.1426 12.1012 6.4008 -0.2808 6.0115 4.6615 0.0000 -0.0000 0.0000 30.5299 -31.6235 -18.6876 80.4903 -59.6555 -51.7739 -0.0000 0.0000 -41.0392 25.1138 2.9488 1.3813 -7.1250 0.0000 -0.0000 -1.2140 33.2341 0.3501 0.0000 -0.0000 0.0000 -18.4719 26.1540 -6.9917 -78.5421 59.4981 -50.0939 0.0000 -0.0000 -23.1015 -36.5508 23.0171 -16.1651 7.1250 -0.0000 -0.0000 -4.5553 -2.1852 -4.3924
-26.7106 15.1175 6.5392 -178.6910 2.6835 -174.0370 0.0000 0.0000 0.0000 -2.8680 15.4679 -23.7966 4.2278 12.4575 37.3702 -0.3058 9.9894 -6.0086 0.1810 -2.7406 -7.5574 0.0000 0.0000 0.0000 0.8712 -6.3688 -41.7400 -10.0791 -17.4541 59.7525 -0.5389 -8.1201 13.4225 -0.1502 -2.4971 6.8817 -3.2228 1.4773 4.1637 -0.7190 2.3310 -9.1752 0.6105 1.6789 -12.3262 6.2440 10.0430 -14.6638 -1.1340 12.3130 6.5120 -0.2726 6.1191 4.7389 -0.0000 -0.0000 0.0000 31.7828 -31.7605 -20.3290 76.2817 -59.2768 -48.1484 -0.0000 0.0000 -43.9967 23.9312 4.2641 1.8899 -7.1250 0.0000 -0.0000 -2.2444 34.6364 0.5714 -0.0000 -0.0000 0.0000 -19.4316 25.8286 -8.4559 -75.6130 59.2033 -47.5738 0.0000 -0.0000 -25.3666 -35.9033 22.3179 -15.3721 7.1250 -0.0000 -0.0000 -4.2966 -3.1704 -4.0640
-26.5463 15.1651 6.5038 -178.5960 2.4027 -173.8470 0.0000 0.0000 0.0000 -2.5337 15.3867 -24.2884 4.2326 12.4637 37.3927 -0.4102 11.2770 -4.7257 0.0663 -1.6619 -4.5722 0.0000 0.0000 0.0000 1.5052 -6.2022 -40.6818 -9.5804 -17.1670 58.0765 -0.5774 -7.5002 13.7363 -0.0769 -1.7885 4.9216 -3.4287 1.3734 3.7832 -0.7901 2.2084 -9.2668 0.6756 1.6496 -12.1976 6.4550 10.2232 -14.8168 -1.1025 12.4990 6.6275 -0.2637 6.2165 4.8155 -0.0000 0.0000 0.0000 32.9846 -31.9650 -21.9735 72.3137 -58.7844 -44.7458 -0.0000 0.0000 -46.7869 22.6598 5.6193 2.3409 -7.1250 0.0000 -0.0000 -3.3949 36.0482 0.7481 -0.0000 0.0000 0.0000 -20.2538 25.4689 -9.7761 -72.8430 58.8580 -45.1986 0.0000 -0.0000 -27.7413 -35.2191 21.5742 -14.5512 7.1250 -0.0000 -0.0000 -4.0141 -4.2071 -3.7181
-26.3800 15.2053 6.4711 -178.5110 2.0755 -173.6710 0.0000 0.0000 0.0000 -2.2552 15.3583 -24.9860 4.2878 12.5338 37.6475 -0.5111 12.5809 -3.6824 0.0049 -0.4521 -1.2423 0.0000 0.0000 0.0000 2.2389 -6.2347 -39.8085 -9.2283 -16.9524 56.8765 -0.5570 -6.8328 13.4157 -0.0242 -1.0034 2.7582 -3.6584 1.2677 3.4419 -0.8716 2.0792 -9.3496 0.7414 1.6180 -12.0832 6.6438 10.3791 -14.9445 -1.0400 12.6538 6.7233 -0.2468 6.3003 4.8779 -0.0000 -0.0000 0.0000 34.1243 -32.2495 -23.6530 68.5734 -58.1922 -41.5566 -0.0000 0.0000 -49.3445 21.3046 6.9528 2.7028 -7.1250 0.0000 -0.0000 -4.6617 37.4008 0.8741 -0.0000 -0.0000 0.0000 -20.9712 25.0680 -10.9647 -70.2354 58.4713 -42.9713 0.0000 -0.0000 -30.1707 -34.4821 20.7978 -13.7052 7.1250 -0.0000 -0.0000 -3.6940 -5.2844 -3.3452
-26.2130 15.2390 6.4411 -178.4420 1.7092 -173.5210 0.0000 0.0000 0.0000 -2.0371 15.3648 -25.8417 4.3878 12.6593 38.1061 -0.6046 13.7755 -2.9010 0.0150 0.7916 2.1755 0.0000 0.0000 0.0000 3.0494 -6.4556 -39.1298 -9.0078 -16.8127 56.1172 -0.4919 -6.2082 12.5769 -0.0010 -0.2088 0.5736 -3.8994 1.1609 3.1584 -0.9662 1.9434 -9.4216 0.7976 1.5823 -11.9913 6.8186 10.5180 -15.0456 -0.9638 12.7876 6.7956 -0.2275 6.3746 4.9264 -0.0000 0.0000 0.0000 35.2100 -32.5959 -25.3781 65.0483 -57.5116 -38.5717 -0.0000 0.0000 -51.6345 19.8151 8.2419 2.9568 -7.1250 0.0000 -0.0000 -6.0868 38.6656 0.9539 -0.0000 0.0000 0.0000 -21.5897 24.6397 -12.0336 -67.7830 58.0502 -40.8855 0.0000 -0.0000 -32.5793 -33.7077 19.9697 -12.8349 7.1250 -0.0000 -0.0000 -3.3475 -6.4176 -2.9575
-26.0466 15.2661 6.4140 -178.3850 1.3111 -173.4080 0.0000 0.0000 0.0000 -1.8715 15.3839 -26.7956 4.5265 12.8299 38.7351 -0.6737 14.6437 -2.3443 0.0900 1.9345 5.3246 0.0000 0.0000 0.0000 3.9098 -6.8361 -38.6312 -8.8929 -16.7383 55.7191 -0.4031 -5.6827 11.3860 -0.0064 0.5157 -1.4171 -4.1352 1.0548 2.9498 -1.0715 1.8026 -9.4803 0.8373 1.5415 -11.9288 6.9706 10.6419 -15.1086 -0.8767 12.9068 6.8354 -0.2060 6.4420 4.9561 -0.0000 0.0000 0.0000 36.2366 -32.9907 -27.1414 61.7500 -56.7585 -35.8010 -0.0000 0.0000 -53.6203 18.2278 9.4542 3.0963 -7.1250 0.0000 -0.0000 -7.6341 39.8114 0.9829 -0.0000 0.0000 0.0000 -22.1196 24.1965 -12.9989 -65.4729 57.6002 -38.9300 0.0000 -0.0000 -34.8823 -32.9131 19.1122 -11.9653 7.1250 -0.0000 -0.0000 -2.9793 -7.5755 -2.5641
-25.8818 15.2869 6.3898 -178.3370 0.8959 -173.3440 0.0000 0.0000 0.0000 -1.7510 15.3930 -27.7852 4.6984 13.0359 39.5029 -0.6890 14.9257 -1.8126 0.1754 2.6981 7.4395 0.0000 0.0000 0.0000 4.7847 -7.3139 -38.2710 -8.8525 -16.7118 55.5786 -0.3112 -5.2831 10.0358 -0.0273 1.0672 -2.9337 -4.3494 0.9542 2.8316 -1.1814 1.6623 -9.5238 0.8571 1.4966 -11.9032 7.0811 10.7535 -15.1319 -0.7799 13.0195 6.8444 -0.1794 6.5060 4.9665 -0.0000 0.0000 0.0000 37.1860 -33.4038 -28.9216 58.7029 -55.9543 -33.2641 -0.0000 0.0000 -55.2963 16.6174 10.5925 3.1401 -7.1250 0.0000 -0.0000 -9.2350 40.8493 0.9545 -0.0000 0.0000 0.0000 -22.5782 23.7555 -13.8742 -63.2968 57.1263 -37.0974 0.0000 -0.0000 -37.0233 -32.1567 18.2652 -11.1467 7.1250 -0.0000 -0.0000 -2.6204 -8.6996 -2.1963
-25.7202 15.3018 6.3682 -178.2940 0.4815 -173.3360 0.0000 0.0000 0.0000 -1.6691 15.3709 -28.7572 4.8993 13.2695 40.3857 -0.6247 14.3959 -1.0848 0.1910 2.8143 7.7622 0.0000 0.0000 0.0000 5.6377 -7.8315 -38.0171 -8.8596 -16.7165 55.6035 -0.2358 -4.9870 8.7914 -0.0528 1.4823 -4.0770 -4.5228 0.8629 2.8144 -1.2906 1.5277 -9.5526 0.8515 1.4484 -11.9213 7.1826 10.8637 -15.1325 -0.7078 13.1374 6.8479 -0.1597 6.5710 4.9729 0.0000 0.0000 0.0000 38.0343 -33.8135 -30.6806 55.9405 -55.1274 -30.9862 -0.0000 0.0000 -56.6759 15.1023 11.6186 3.1109 -7.1250 0.0000 -0.0000 -10.7713 41.7555 0.8733 0.0000 0.0000 0.0000 -22.9795 23.3320 -14.6677 -61.2590 56.6362 -35.3907 0.0000 -0.0000 -38.9787 -31.4503 17.4273 -10.3800 7.1250 -0.0000 -0.0000 -2.2795 -9.7910 -1.8602
-25.5625 15.3121 6.3492 -178.2490 0.0850 -173.3880 0.0000 0.0000 0.0000 -1.6218 15.3234 -29.6792 5.1259 13.5241 41.3636 -0.4793 12.9102 -0.1183 0.1233 2.2633 6.2340 0.0000 0.0000 0.0000 6.4373 -8.3187 -37.8361 -8.8949 -16.7396 55.7258 -0.1756 -4.8320 7.6855 -0.0649 1.6438 -4.5223 -4.6417 0.7879 2.8983 -1.3936 1.4077 -9.5639 0.8183 1.3997 -11.9806 7.2597 10.9718 -15.1131 -0.6565 13.2620 6.8438 -0.1434 6.6375 4.9738 -0.0000 -0.0000 0.0000 38.7752 -34.2001 -32.4004 53.4705 -54.3028 -28.9698 -0.0000 0.0000 -57.8150 13.8126 12.5109 3.0486 -7.1250 0.0000 -0.0000 -12.1126 42.5279 0.7508 -0.0000 -0.0000 0.0000 -23.3302 22.9290 -15.4004 -59.3688 56.1394 -33.8164 0.0000 -0.0000 -40.7440 -30.7953 16.6055 -9.6663 7.1250 -0.0000 -0.0000 -1.9580 -10.8432 -1.5556
-25.4098 15.3173 6.3330 -178.1960 -0.2699 -173.5000 0.0000 0.0000 0.0000 -1.6170 15.2624 -30.5428 5.3770 13.7962 42.4272 -0.2826 10.4119 1.0175 0.0279 1.0783 2.9643 0.0000 0.0000 0.0000 7.1629 -8.7473 -37.6952 -8.9533 -16.7776 55.9284 -0.1310 -4.6283 6.7440 -0.0663 1.6611 -4.5699 -4.6340 1.8307 3.0792 -1.6288 1.0497 -9.5336 0.7531 0.4962 -12.0924 7.3391 11.0887 -15.0833 -0.6431 13.4043 6.8519 -0.1370 6.7107 4.9805 -0.0000 -0.0000 0.0000 39.3908 -34.5398 -34.0386 51.3092 -53.5101 -27.2232 -0.0000 0.0000 -58.7465 12.8758 13.2738 3.0044 -7.1250 0.0000 -0.0000 -13.1347 43.1928 0.5968 -0.0000 -0.0000 0.0000 -23.6330 22.5626 -16.0907 -57.6421 55.6482 -32.3867 0.0000 -0.0000 -42.3626 -30.1690 15.8190 -9.0042 7.1250 -0.0000 -0.0000 -1.6399 -11.8405 -1.2691
